<svg width="140" height="42" viewBox="0 0 140 42" fill="none" xmlns="http://www.w3.org/2000/svg">
<path d="M61.2838 30.2033C62.1001 30.2033 62.7803 29.9117 63.3245 29.3286C63.9076 28.7067 64.1991 27.8904 64.1991 26.8797C64.1991 25.6747 63.8299 24.5669 63.0913 23.5562C62.3527 22.5067 61.2255 21.2433 59.7095 19.7662C58.1546 18.2114 56.9885 16.8897 56.211 15.8013C55.4336 14.674 55.0449 13.4496 55.0449 12.128C55.0449 10.6508 55.5891 9.44581 56.6775 8.51289C57.7659 7.5411 59.1653 7.0552 60.8756 7.0552C62.6248 7.0552 64.0631 7.52166 65.1904 8.45458C66.3176 9.3875 66.8813 10.4953 66.8813 11.7781C66.8813 12.4001 66.7258 12.9054 66.4148 13.2941C66.1039 13.6828 65.6763 13.8772 65.1321 13.8772C63.9659 13.8772 63.3828 12.9443 63.3828 11.0784C63.3828 10.0289 63.1496 9.21258 62.6831 8.62951C62.2167 8.04643 61.5364 7.75489 60.6424 7.75489C59.8261 7.75489 59.1458 8.00756 58.6016 8.51289C58.0963 8.97935 57.8436 9.6596 57.8436 10.5536C57.8436 11.5643 58.174 12.4972 58.8349 13.3524C59.4957 14.2076 60.5063 15.2571 61.8668 16.501C63.5383 18.0559 64.8017 19.4553 65.6568 20.6991C66.5509 21.9042 66.9979 23.323 66.9979 24.9556C66.9979 26.7048 66.4343 28.1431 65.307 29.2703C64.1797 30.3587 62.6831 30.903 60.8173 30.903C59.0292 30.903 57.5521 30.4171 56.3859 29.4453C55.2198 28.4346 54.6367 27.2685 54.6367 25.9468C54.6367 24.4697 55.2781 23.6728 56.5609 23.5562C57.1051 23.5562 57.5327 23.8089 57.8436 24.3142C58.1935 24.7807 58.3684 25.4804 58.3684 26.4133C58.3684 27.5406 58.6211 28.454 59.1264 29.1537C59.6317 29.8534 60.3509 30.2033 61.2838 30.2033Z" fill="white"/>
<path d="M72.7758 23.5562C72.7758 25.15 73.184 26.355 74.0003 27.1713C74.8166 27.9487 75.8078 28.3374 76.9739 28.3374C78.179 28.3374 79.1896 27.9293 80.0059 27.113C80.8611 26.2578 81.2887 25.0722 81.2887 23.5562H81.9301C81.9301 25.8496 81.2693 27.6572 79.9476 28.9788C78.6649 30.2616 77.1294 30.903 75.3413 30.903C73.5921 30.903 72.0956 30.281 70.8517 29.0371C69.6078 27.7543 68.9858 25.9274 68.9858 23.5562V14.3436C68.9858 11.8947 69.5883 10.0678 70.7934 8.86273C71.9984 7.61884 73.631 6.99689 75.6912 6.99689C77.9846 6.99689 79.5978 7.65771 80.5307 8.97935C81.4636 10.2621 81.9301 11.6226 81.9301 13.0609C81.9301 14.0327 81.7163 14.7712 81.2887 15.2766C80.8611 15.7819 80.3752 16.0346 79.831 16.0346C79.3645 16.0346 78.937 15.8402 78.5482 15.4515C78.1595 15.0628 77.9652 14.4797 77.9652 13.7023C77.9652 13.2358 78.0818 12.6527 78.315 11.953C78.5871 11.2533 78.7232 10.6508 78.7232 10.1455C78.7232 9.44581 78.4705 8.86273 77.9652 8.39627C77.4987 7.89094 76.8962 7.63828 76.1576 7.63828C75.1858 7.63828 74.3695 8.10474 73.7087 9.03766C73.0868 9.97058 72.7758 11.4477 72.7758 13.469V23.5562Z" fill="white"/>
<path d="M83.9626 14.8684C83.9626 12.4584 84.6818 10.5536 86.12 9.15427C87.5971 7.71602 89.3075 6.99689 91.2511 6.99689C93.2335 6.99689 94.9439 7.71602 96.3821 9.15427C97.8204 10.5536 98.5395 12.4584 98.5395 14.8684V23.0314C98.5395 25.4415 97.8204 27.3656 96.3821 28.8039C94.9439 30.2033 93.2335 30.903 91.2511 30.903C89.3075 30.903 87.5971 30.2033 86.12 28.8039C84.6818 27.3656 83.9626 25.4415 83.9626 23.0314V14.8684ZM87.7526 24.4308C87.7526 26.3355 88.0636 27.7738 88.6855 28.7456C89.3464 29.7174 90.2015 30.2033 91.2511 30.2033C92.3006 30.2033 93.1363 29.7174 93.7583 28.7456C94.4191 27.7349 94.7495 26.2967 94.7495 24.4308V13.469C94.7495 11.6032 94.4191 10.1844 93.7583 9.21258C93.1363 8.20192 92.3006 7.69659 91.2511 7.69659C90.2015 7.69659 89.3464 8.18248 88.6855 9.15427C88.0636 10.1261 87.7526 11.5643 87.7526 13.469V24.4308Z" fill="white"/>
<path d="M111.493 14.3436C111.493 12.7499 111.182 11.5643 110.56 10.7869C109.938 9.97058 109.199 9.56242 108.344 9.56242C107.45 9.56242 106.692 9.99001 106.07 10.8452C105.487 11.6615 105.196 12.8276 105.196 14.3436V23.5562C105.196 25.0722 105.487 26.2578 106.07 27.113C106.692 27.9293 107.45 28.3374 108.344 28.3374C109.199 28.3374 109.938 27.9487 110.56 27.1713C111.182 26.355 111.493 25.15 111.493 23.5562V14.3436ZM105.196 39.8823L101.989 41.6898H101.406V9.91227C101.406 8.70725 100.978 8.02699 100.123 7.87151V7.28843H103.738L104.729 12.2446C105.079 10.5731 105.74 9.29032 106.712 8.39627C107.683 7.46335 108.791 6.99689 110.035 6.99689C111.473 6.99689 112.698 7.63828 113.709 8.92104C114.758 10.1649 115.283 11.9725 115.283 14.3436V23.5562C115.283 25.9274 114.778 27.7543 113.767 29.0371C112.756 30.281 111.532 30.903 110.093 30.903C109.044 30.903 108.072 30.5531 107.178 29.8534C106.284 29.1537 105.623 28.1625 105.196 26.8797V39.8823Z" fill="white"/>
<path d="M118.263 2.3323C118.263 1.67148 118.477 1.12728 118.904 0.699691C119.371 0.23323 119.934 0 120.595 0C121.256 0 121.8 0.23323 122.228 0.699691C122.694 1.12728 122.928 1.67148 122.928 2.3323C122.928 2.99312 122.694 3.55675 122.228 4.02321C121.8 4.4508 121.256 4.6646 120.595 4.6646C119.934 4.6646 119.371 4.4508 118.904 4.02321C118.477 3.55675 118.263 2.99312 118.263 2.3323ZM117.272 30.0283C118.127 29.8729 118.554 29.1926 118.554 27.9876V12.0113C118.554 10.8452 118.127 10.1844 117.272 10.0289V9.3875L121.82 6.99689H122.344V27.9876C122.344 29.1926 122.772 29.8729 123.627 30.0283V30.6114H117.272V30.0283Z" fill="white"/>
<path d="M134.928 15.2766C134.5 16.1317 133.567 17.259 132.129 18.6584C130.963 19.8245 130.088 20.8546 129.505 21.7487C128.922 22.6427 128.631 23.7117 128.631 24.9556C128.631 26.0829 128.883 26.9769 129.389 27.6377C129.933 28.2597 130.613 28.5707 131.429 28.5707C132.401 28.5707 133.218 28.1431 133.878 27.2879C134.578 26.4327 134.928 25.2277 134.928 23.6728V15.2766ZM138.718 27.9293C138.718 29.0954 139.145 29.7951 140.001 30.0283V30.6114H136.386L135.394 25.6553C135.045 27.3268 134.345 28.629 133.295 29.5619C132.246 30.4559 131.021 30.903 129.622 30.903C128.261 30.903 127.154 30.4754 126.298 29.6202C125.443 28.7261 125.016 27.5211 125.016 26.0051C125.016 24.4114 125.443 23.1092 126.298 22.0985C127.192 21.0879 128.495 19.98 130.205 18.775C131.799 17.6866 132.984 16.6954 133.762 15.8013C134.539 14.9073 134.928 13.78 134.928 12.4195C134.928 11.2145 134.578 10.2815 133.878 9.62073C133.218 8.95991 132.382 8.62951 131.371 8.62951C130.555 8.62951 129.758 8.8433 128.981 9.27088C128.203 9.69847 127.523 10.301 126.94 11.0784L126.532 10.6703C127.465 9.3875 128.495 8.45458 129.622 7.87151C130.749 7.28843 131.896 6.99689 133.062 6.99689C134.734 6.99689 136.094 7.5411 137.144 8.62951C138.193 9.67904 138.718 11.1562 138.718 13.0609V27.9293Z" fill="white"/>
<path d="M23.6092 17.0981C22.8964 17.3933 22.1738 17.6685 21.4727 17.9889C20.5373 18.4156 19.6118 18.8665 18.6946 19.3328C18.4196 19.4808 18.167 19.6673 17.9446 19.8865C17.6638 20.1523 17.7276 20.3842 18.1031 20.4931C18.4159 20.5769 18.7336 20.6407 19.0545 20.684C21.2166 21.0114 23.3941 21.0372 25.5645 20.8712C28.7142 20.6296 31.8565 20.2879 35.0032 20.005C37.8842 19.7454 40.7646 19.4659 43.6513 19.2818C44.6429 19.2179 45.6538 19.398 46.6516 19.5047C46.9422 19.536 47.233 19.6681 47.4956 19.8075C48.2722 20.2203 48.4529 21.0297 47.9401 21.7508C47.4919 22.3769 46.8645 22.7992 46.2217 23.1921C44.6024 24.1865 42.8477 24.8708 41.0382 25.4244C40.4071 25.6167 39.7605 25.7688 39.1291 25.9497C39.0101 25.983 38.903 26.0493 38.8202 26.1411C37.2693 28.0094 35.2726 29.1803 32.9534 29.7758C27.9564 31.0556 23.8188 29.4995 20.3506 25.8382C20.3293 25.8123 20.31 25.7847 20.293 25.7557C20.2861 25.7335 20.2814 25.7107 20.2789 25.6876C23.9248 25.7536 27.5002 25.2026 31.0503 24.4856C34.6005 23.7685 38.1078 22.9069 41.4173 21.4029C41.409 21.3634 41.4009 21.3239 41.3927 21.2844C40.0045 21.4151 38.6131 21.5195 37.229 21.6834C34.9058 21.9586 32.5873 22.2698 30.2679 22.5698C28.3274 22.8209 26.3899 23.1034 24.4468 23.3281C20.6187 23.7696 16.7908 24.2466 12.9217 24.0323C11.9836 23.9807 11.0477 23.8781 10.1706 23.5182C9.82738 23.3807 9.51092 23.1841 9.23552 22.9373C8.7524 22.4913 8.75879 21.913 9.20715 21.4319C9.8061 20.7902 10.5861 20.4256 11.3689 20.0775C13.3349 19.2037 15.3924 18.5928 17.4859 18.1415C19.442 17.7195 21.4243 17.417 23.3954 17.0636C23.4618 17.0559 23.5286 17.0522 23.5955 17.0526L23.6092 17.0981Z" fill="#00EFE1"/>
<path d="M24.6478 19.7286C25.6684 19.2949 26.7014 18.887 27.7062 18.4181C28.4788 18.0518 29.2322 17.6465 29.9637 17.2037C30.1748 17.0782 30.2921 16.7945 30.452 16.5829C30.2253 16.4694 30.0096 16.2989 29.7697 16.2515C27.8284 15.8654 25.8613 15.8343 23.8924 15.8938C20.3022 16.0002 16.74 16.4504 13.1701 16.8191C10.3081 17.1154 7.43086 17.3451 4.55658 17.5515C3.46301 17.6302 2.3593 17.5711 1.28898 17.2485C-0.142282 16.8154 -0.422156 15.7097 0.653666 14.6627C1.64838 13.6936 2.88457 13.0943 4.12979 12.535C5.70907 11.8268 7.35508 11.31 9.03018 10.8923C9.18312 10.8558 9.32194 10.775 9.42937 10.6602C10.9823 8.81199 12.9744 7.6705 15.2735 7.04646C18.1439 6.26677 20.9386 6.48828 23.6311 7.78051C25.2314 8.55399 26.6662 9.63142 27.8556 10.9528C27.8926 10.9942 27.9225 11.0426 27.9894 11.1325C24.3051 11.0695 20.7285 11.6179 17.1788 12.337C13.6398 13.0566 10.1346 13.9149 6.83077 15.4149C6.8367 15.4435 6.84278 15.4728 6.84546 15.5028C7.18988 15.4824 7.53502 15.4654 7.87956 15.4422C8.22411 15.4189 8.56981 15.4046 8.91394 15.3622C12.1202 14.9661 15.3255 14.5616 18.5314 14.1669C21.531 13.7981 24.5286 13.4055 27.5333 13.0853C30.1462 12.8067 32.7701 12.5948 35.3988 12.8061C36.2907 12.878 37.1745 13.0993 38.0487 13.3049C38.3477 13.3771 38.6421 13.5739 38.8895 13.774C39.4861 14.2533 39.542 14.9607 38.9567 15.4426C38.394 15.9027 37.7793 16.2953 37.1253 16.6125C35.3905 17.4575 33.5444 18.0095 31.6743 18.4556C29.9827 18.8589 28.2753 19.1859 26.5741 19.5223C25.9404 19.6476 25.2937 19.7067 24.6525 19.7958L24.6478 19.7286Z" fill="#00EFE1"/>
</svg>
