<svg width="43" height="22" viewBox="0 0 43 22" fill="none" xmlns="http://www.w3.org/2000/svg">
<path d="M21.0492 9.36415C20.4137 9.62731 19.7695 9.87266 19.1444 10.1584C18.3104 10.5388 17.4853 10.9408 16.6675 11.3565C16.4223 11.4885 16.1972 11.6547 15.9988 11.8502C15.7485 12.0872 15.8054 12.2939 16.1402 12.391C16.419 12.4657 16.7023 12.5226 16.9884 12.5613C18.916 12.8532 20.8575 12.8761 22.7925 12.7281C25.6006 12.5127 28.4022 12.2081 31.2077 11.9559C33.7763 11.7244 36.3444 11.4752 38.9181 11.3111C39.8022 11.2541 40.7035 11.4146 41.5931 11.5098C41.8521 11.5377 42.1115 11.6555 42.3456 11.7798C43.0379 12.1478 43.1991 12.8694 42.7418 13.5124C42.3423 14.0705 41.7829 14.4471 41.2098 14.7974C39.7661 15.684 38.2017 16.2941 36.5884 16.7876C36.0257 16.959 35.4492 17.0947 34.8863 17.256C34.7802 17.2856 34.6847 17.3448 34.6108 17.4266C33.2281 19.0923 31.4479 20.1362 29.3802 20.6672C24.925 21.8082 21.2361 20.4208 18.144 17.1566C18.125 17.1334 18.1078 17.1088 18.0926 17.083C18.0865 17.0632 18.0822 17.0429 18.08 17.0223C21.3306 17.0811 24.5183 16.5898 27.6835 15.9506C30.8487 15.3113 33.9757 14.5431 36.9263 13.2022C36.919 13.167 36.9117 13.1318 36.9044 13.0965C35.6668 13.213 34.4262 13.3061 33.1922 13.4523C31.121 13.6976 29.0538 13.9751 26.9859 14.2426C25.2558 14.4664 23.5284 14.7183 21.796 14.9186C18.383 15.3122 14.9701 15.7375 11.5206 15.5465C10.6842 15.5004 9.84975 15.409 9.06775 15.0881C8.76178 14.9655 8.47964 14.7902 8.23409 14.5702C7.80336 14.1725 7.80906 13.657 8.20881 13.228C8.74281 12.6559 9.43825 12.3309 10.1361 12.0205C11.889 11.2414 13.7234 10.6968 15.5899 10.2945C17.3339 9.91816 19.1012 9.64851 20.8586 9.33343C20.9178 9.32649 20.9774 9.3232 21.037 9.32361L21.0492 9.36415Z" fill="white"/>
<path d="M21.9752 11.7094C22.8851 11.3227 23.8062 10.959 24.702 10.541C25.3908 10.2144 26.0625 9.85308 26.7147 9.45834C26.9029 9.34638 27.0075 9.09344 27.15 8.90481C26.948 8.80363 26.7556 8.65165 26.5417 8.60931C24.8109 8.26511 23.0571 8.23736 21.3017 8.2904C18.1008 8.38532 14.9249 8.78672 11.7421 9.11543C9.19039 9.37953 6.62512 9.58437 4.0625 9.76839C3.08751 9.83857 2.10348 9.78582 1.14921 9.49821C-0.126854 9.11211 -0.376381 8.1263 0.582788 7.19281C1.46964 6.32881 2.57179 5.79448 3.68199 5.29585C5.09003 4.66438 6.55756 4.20364 8.05103 3.83126C8.18738 3.79868 8.31115 3.72671 8.40693 3.62428C9.79147 1.97652 11.5676 0.958803 13.6174 0.402424C16.1765 -0.292723 18.6682 -0.0952272 21.0688 1.05688C22.4956 1.74649 23.7748 2.70709 24.8352 3.88521C24.8681 3.92207 24.8948 3.9653 24.9545 4.04539C21.6697 3.98923 18.4809 4.47819 15.3161 5.11928C12.1609 5.7609 9.03572 6.52614 6.0901 7.86349C6.09539 7.889 6.10081 7.91511 6.10319 7.94186C6.41027 7.92367 6.71798 7.90851 7.02517 7.88776C7.33235 7.86702 7.64057 7.85429 7.94738 7.81652C10.806 7.46331 13.6637 7.10268 16.522 6.75081C19.1964 6.42194 21.8689 6.07192 24.5479 5.78645C26.8774 5.53809 29.2168 5.34914 31.5604 5.53751C32.3556 5.60161 33.1436 5.79897 33.923 5.98228C34.1896 6.04662 34.4521 6.22205 34.6727 6.40047C35.2045 6.8278 35.2544 7.45853 34.7326 7.88812C34.2308 8.29834 33.6828 8.64841 33.0997 8.93118C31.553 9.68458 29.9071 10.1767 28.2398 10.5744C26.7316 10.934 25.2094 11.2256 23.6926 11.5255C23.1276 11.6372 22.5511 11.6899 21.9794 11.7694L21.9752 11.7094Z" fill="white"/>
</svg>
